<?xml version="1.0" encoding="UTF-8"?>
<svg width="176px" height="50px" viewBox="0 0 176 50" version="1.1" xmlns="http://www.w3.org/2000/svg" xmlns:xlink="http://www.w3.org/1999/xlink">
    <!-- Generator: Sketch 51.3 (57544) - http://www.bohemiancoding.com/sketch -->
    <title>logo</title>
    <desc>Created with Sketch.</desc>
    <defs>
        <linearGradient x1="50%" y1="0%" x2="50%" y2="100%" id="linearGradient-1">
            <stop stop-color="#FFF500" offset="0%"></stop>
            <stop stop-color="#FFCA17" offset="100%"></stop>
        </linearGradient>
        <path d="M19.7975191,19.7213424 C16.6942891,24.5320072 15.1426741,29.9154707 15.1426741,35.8717328 C15.1426741,43.029049 16.6942891,50.7591637 19.7975191,59.062077 C23.1019232,50.8044879 24.7541252,43.1279994 24.7541252,36.0326117 C24.7541252,30.0144212 23.1019232,24.5773314 19.7975191,19.7213424 Z" id="path-2"></path>
        <filter x="-62.4%" y="-15.3%" width="224.9%" height="130.5%" filterUnits="objectBoundingBox" id="filter-3">
            <feOffset dx="0" dy="0" in="SourceAlpha" result="shadowOffsetOuter1"></feOffset>
            <feGaussianBlur stdDeviation="2" in="shadowOffsetOuter1" result="shadowBlurOuter1"></feGaussianBlur>
            <feColorMatrix values="0 0 0 0 0.970775187   0 0 0 0 0.907238424   0 0 0 0 0.109462149  0 0 0 0.563745471 0" type="matrix" in="shadowBlurOuter1"></feColorMatrix>
        </filter>
        <linearGradient x1="50%" y1="0%" x2="50%" y2="100%" id="linearGradient-4">
            <stop stop-color="#FFA730" offset="0%"></stop>
            <stop stop-color="#FF6A3C" offset="100%"></stop>
        </linearGradient>
        <path d="M20.979798,12.9936805 C17.876568,17.8043454 16.324953,23.1878089 16.324953,29.144071 C16.324953,36.3013871 17.876568,44.0315018 20.979798,52.3344152 C24.2842021,44.076826 25.9364041,36.4003376 25.9364041,29.3049498 C25.9364041,23.2867593 24.2842021,17.8496696 20.979798,12.9936805 Z" id="path-5"></path>
        <filter x="-67.6%" y="-14.0%" width="235.3%" height="133.0%" filterUnits="objectBoundingBox" id="filter-6">
            <feOffset dx="0" dy="1" in="SourceAlpha" result="shadowOffsetOuter1"></feOffset>
            <feGaussianBlur stdDeviation="2" in="shadowOffsetOuter1" result="shadowBlurOuter1"></feGaussianBlur>
            <feColorMatrix values="0 0 0 0 0.833838223   0 0 0 0 0.328298803   0 0 0 0 0.13706479  0 0 0 1 0" type="matrix" in="shadowBlurOuter1"></feColorMatrix>
        </filter>
        <linearGradient x1="50%" y1="0%" x2="50%" y2="100%" id="linearGradient-7">
            <stop stop-color="#FF6513" offset="0%"></stop>
            <stop stop-color="#F43FF9" offset="100%"></stop>
        </linearGradient>
        <path d="M24.1663979,7.34237909 C21.0631679,12.153044 19.5115528,17.5365075 19.5115528,23.4927696 C19.5115528,30.6500857 21.0631679,38.3802004 24.1663979,46.6831138 C27.4708019,38.4255246 29.1230039,30.7490362 29.1230039,23.6536484 C29.1230039,17.6354579 27.4708019,12.1983682 24.1663979,7.34237909 Z" id="path-8"></path>
        <filter x="-67.6%" y="-14.0%" width="235.3%" height="133.0%" filterUnits="objectBoundingBox" id="filter-9">
            <feOffset dx="0" dy="1" in="SourceAlpha" result="shadowOffsetOuter1"></feOffset>
            <feGaussianBlur stdDeviation="2" in="shadowOffsetOuter1" result="shadowBlurOuter1"></feGaussianBlur>
            <feColorMatrix values="0 0 0 0 0.614997554   0 0 0 0 0.0919441517   0 0 0 0 0.688908376  0 0 0 0.560150589 0" type="matrix" in="shadowBlurOuter1"></feColorMatrix>
        </filter>
        <linearGradient x1="50%" y1="94.0073103%" x2="50%" y2="9.92773479%" id="linearGradient-10">
            <stop stop-color="#438EFF" offset="0%"></stop>
            <stop stop-color="#6ACCFF" offset="100%"></stop>
        </linearGradient>
        <path d="M29.0130835,3.03992478 C25.9098535,7.85058966 24.3582385,13.2340532 24.3582385,19.1903153 C24.3582385,26.3476314 25.9098535,34.0777461 29.0130835,42.3806595 C32.3174876,34.1230703 33.9696896,26.4465819 33.9696896,19.3511941 C33.9696896,13.3330036 32.3174876,7.89591386 29.0130835,3.03992478 Z" id="path-11"></path>
        <filter x="-62.4%" y="-15.3%" width="224.9%" height="130.5%" filterUnits="objectBoundingBox" id="filter-12">
            <feOffset dx="0" dy="0" in="SourceAlpha" result="shadowOffsetOuter1"></feOffset>
            <feGaussianBlur stdDeviation="2" in="shadowOffsetOuter1" result="shadowBlurOuter1"></feGaussianBlur>
            <feColorMatrix values="0 0 0 0 0.288655698   0 0 0 0 0.56455189   0 0 0 0 0.886238694  0 0 0 0.690981658 0" type="matrix" in="shadowBlurOuter1"></feColorMatrix>
        </filter>
        <linearGradient x1="50%" y1="0%" x2="50%" y2="100%" id="linearGradient-13">
            <stop stop-color="#3FFB55" offset="0%"></stop>
            <stop stop-color="#BBF93F" offset="100%"></stop>
        </linearGradient>
        <path d="M34.6590462,0.635268994 C31.5558162,5.44593387 30.0042012,10.8293974 30.0042012,16.7856595 C30.0042012,23.9429756 31.5558162,31.6730903 34.6590462,39.9760037 C37.9634503,31.7184145 39.6156523,24.0419261 39.6156523,16.9465383 C39.6156523,10.9283478 37.9634503,5.49125807 34.6590462,0.635268994 Z" id="path-14"></path>
        <filter x="-67.6%" y="-14.0%" width="235.3%" height="133.0%" filterUnits="objectBoundingBox" id="filter-15">
            <feOffset dx="0" dy="1" in="SourceAlpha" result="shadowOffsetOuter1"></feOffset>
            <feGaussianBlur stdDeviation="2" in="shadowOffsetOuter1" result="shadowBlurOuter1"></feGaussianBlur>
            <feColorMatrix values="0 0 0 0 0.49415046   0 0 0 0 0.826234102   0 0 0 0 0.129877269  0 0 0 1 0" type="matrix" in="shadowBlurOuter1"></feColorMatrix>
        </filter>
    </defs>
    <g id="Website" stroke="none" stroke-width="1" fill="none" fill-rule="evenodd">
        <g id="lorikeet-landing" transform="translate(-244.000000, -3925.000000)">
            <g id="Group-12" transform="translate(247.000000, 3927.000000)">
                <g id="logo">
                    <g id="Group-2" transform="translate(0.000000, -0.000000)">
                        <g id="Group" opacity="0.949999988">
                            <g id="original_Path-2_67779265" style="mix-blend-mode: screen;" transform="translate(19.948400, 39.391710) rotate(-90.000000) translate(-19.948400, -39.391710) ">
                                <use fill="black" fill-opacity="1" filter="url(#filter-3)" xlink:href="#path-2"></use>
                                <use fill="url(#linearGradient-1)" fill-rule="evenodd" xlink:href="#path-2"></use>
                            </g>
                            <g id="original_Path-2_67779265-Copy" style="mix-blend-mode: screen;" transform="translate(21.130679, 32.664048) rotate(-70.000000) translate(-21.130679, -32.664048) ">
                                <use fill="black" fill-opacity="1" filter="url(#filter-6)" xlink:href="#path-5"></use>
                                <use fill="url(#linearGradient-4)" fill-rule="evenodd" xlink:href="#path-5"></use>
                            </g>
                            <g id="original_Path-2_67779265-Copy-2" style="mix-blend-mode: screen;" transform="translate(24.317278, 27.012746) rotate(-51.000000) translate(-24.317278, -27.012746) ">
                                <use fill="black" fill-opacity="1" filter="url(#filter-9)" xlink:href="#path-8"></use>
                                <use fill="url(#linearGradient-7)" fill-rule="evenodd" xlink:href="#path-8"></use>
                            </g>
                            <g id="original_Path-2_67779265-Copy-3" style="mix-blend-mode: screen;" transform="translate(29.163964, 22.710292) rotate(-32.000000) translate(-29.163964, -22.710292) ">
                                <use fill="black" fill-opacity="1" filter="url(#filter-12)" xlink:href="#path-11"></use>
                                <use fill="url(#linearGradient-10)" fill-rule="evenodd" xlink:href="#path-11"></use>
                            </g>
                            <g id="original_Path-2_67779265-Copy-4" style="mix-blend-mode: screen;" transform="translate(34.809927, 20.305636) rotate(-14.000000) translate(-34.809927, -20.305636) ">
                                <use fill="black" fill-opacity="1" filter="url(#filter-15)" xlink:href="#path-14"></use>
                                <use fill="url(#linearGradient-13)" fill-rule="evenodd" xlink:href="#path-14"></use>
                            </g>
                        </g>
                        <g id="Group-Copy" opacity="0.949999988">
                            <path d="M19.7975191,19.7213424 C16.6942891,24.5320072 15.1426741,29.9154707 15.1426741,35.8717328 C15.1426741,43.029049 16.6942891,50.7591637 19.7975191,59.062077 C23.1019232,50.8044879 24.7541252,43.1279994 24.7541252,36.0326117 C24.7541252,30.0144212 23.1019232,24.5773314 19.7975191,19.7213424 Z" id="original_Path-2_67779265" fill="url(#linearGradient-1)" transform="translate(19.948400, 39.391710) rotate(-90.000000) translate(-19.948400, -39.391710) "></path>
                            <path d="M20.979798,12.9936805 C17.876568,17.8043454 16.324953,23.1878089 16.324953,29.144071 C16.324953,36.3013871 17.876568,44.0315018 20.979798,52.3344152 C24.2842021,44.076826 25.9364041,36.4003376 25.9364041,29.3049498 C25.9364041,23.2867593 24.2842021,17.8496696 20.979798,12.9936805 Z" id="original_Path-2_67779265-Copy" fill="url(#linearGradient-4)" transform="translate(21.130679, 32.664048) rotate(-70.000000) translate(-21.130679, -32.664048) "></path>
                            <path d="M24.1663979,7.34237909 C21.0631679,12.153044 19.5115528,17.5365075 19.5115528,23.4927696 C19.5115528,30.6500857 21.0631679,38.3802004 24.1663979,46.6831138 C27.4708019,38.4255246 29.1230039,30.7490362 29.1230039,23.6536484 C29.1230039,17.6354579 27.4708019,12.1983682 24.1663979,7.34237909 Z" id="original_Path-2_67779265-Copy-2" fill="url(#linearGradient-7)" transform="translate(24.317278, 27.012746) rotate(-51.000000) translate(-24.317278, -27.012746) "></path>
                            <path d="M29.0130835,3.03992478 C25.9098535,7.85058966 24.3582385,13.2340532 24.3582385,19.1903153 C24.3582385,26.3476314 25.9098535,34.0777461 29.0130835,42.3806595 C32.3174876,34.1230703 33.9696896,26.4465819 33.9696896,19.3511941 C33.9696896,13.3330036 32.3174876,7.89591386 29.0130835,3.03992478 Z" id="original_Path-2_67779265-Copy-3" fill="url(#linearGradient-10)" transform="translate(29.163964, 22.710292) rotate(-32.000000) translate(-29.163964, -22.710292) "></path>
                            <path d="M34.6590462,0.635268994 C31.5558162,5.44593387 30.0042012,10.8293974 30.0042012,16.7856595 C30.0042012,23.9429756 31.5558162,31.6730903 34.6590462,39.9760037 C37.9634503,31.7184145 39.6156523,24.0419261 39.6156523,16.9465383 C39.6156523,10.9283478 37.9634503,5.49125807 34.6590462,0.635268994 Z" id="original_Path-2_67779265-Copy-4" fill="url(#linearGradient-13)" transform="translate(34.809927, 20.305636) rotate(-14.000000) translate(-34.809927, -20.305636) "></path>
                        </g>
                        <g id="Group-Copy-2" opacity="0.263671875">
                            <path d="M19.7975191,19.7213424 C16.6942891,24.5320072 15.1426741,29.9154707 15.1426741,35.8717328 C15.1426741,43.029049 16.6942891,50.7591637 19.7975191,59.062077 C23.1019232,50.8044879 24.7541252,43.1279994 24.7541252,36.0326117 C24.7541252,30.0144212 23.1019232,24.5773314 19.7975191,19.7213424 Z" id="original_Path-2_67779265" fill="url(#linearGradient-1)" opacity="0.949999988" style="mix-blend-mode: hard-light;" transform="translate(19.948400, 39.391710) rotate(-90.000000) translate(-19.948400, -39.391710) "></path>
                            <path d="M20.979798,12.9936805 C17.876568,17.8043454 16.324953,23.1878089 16.324953,29.144071 C16.324953,36.3013871 17.876568,44.0315018 20.979798,52.3344152 C24.2842021,44.076826 25.9364041,36.4003376 25.9364041,29.3049498 C25.9364041,23.2867593 24.2842021,17.8496696 20.979798,12.9936805 Z" id="original_Path-2_67779265-Copy" fill="url(#linearGradient-4)" opacity="0.949999988" style="mix-blend-mode: hard-light;" transform="translate(21.130679, 32.664048) rotate(-70.000000) translate(-21.130679, -32.664048) "></path>
                            <path d="M24.1663979,7.34237909 C21.0631679,12.153044 19.5115528,17.5365075 19.5115528,23.4927696 C19.5115528,30.6500857 21.0631679,38.3802004 24.1663979,46.6831138 C27.4708019,38.4255246 29.1230039,30.7490362 29.1230039,23.6536484 C29.1230039,17.6354579 27.4708019,12.1983682 24.1663979,7.34237909 Z" id="original_Path-2_67779265-Copy-2" fill="url(#linearGradient-7)" opacity="0.949999988" style="mix-blend-mode: hard-light;" transform="translate(24.317278, 27.012746) rotate(-51.000000) translate(-24.317278, -27.012746) "></path>
                            <path d="M29.0130835,3.03992478 C25.9098535,7.85058966 24.3582385,13.2340532 24.3582385,19.1903153 C24.3582385,26.3476314 25.9098535,34.0777461 29.0130835,42.3806595 C32.3174876,34.1230703 33.9696896,26.4465819 33.9696896,19.3511941 C33.9696896,13.3330036 32.3174876,7.89591386 29.0130835,3.03992478 Z" id="original_Path-2_67779265-Copy-3" fill="url(#linearGradient-10)" opacity="0.949999988" style="mix-blend-mode: hard-light;" transform="translate(29.163964, 22.710292) rotate(-32.000000) translate(-29.163964, -22.710292) "></path>
                            <path d="M34.6590462,0.635268994 C31.5558162,5.44593387 30.0042012,10.8293974 30.0042012,16.7856595 C30.0042012,23.9429756 31.5558162,31.6730903 34.6590462,39.9760037 C37.9634503,31.7184145 39.6156523,24.0419261 39.6156523,16.9465383 C39.6156523,10.9283478 37.9634503,5.49125807 34.6590462,0.635268994 Z" id="original_Path-2_67779265-Copy-4" fill="url(#linearGradient-13)" opacity="0.949999988" style="mix-blend-mode: hard-light;" transform="translate(34.809927, 20.305636) rotate(-14.000000) translate(-34.809927, -20.305636) "></path>
                        </g>
                    </g>
                    <text id="Lorikeet" font-family="Overpass-Bold, Overpass" font-size="33.1776" font-weight="bold" fill="#FFFFFF">
                        <tspan x="45.7216" y="41.84736">Lorikeet</tspan>
                    </text>
                </g>
            </g>
        </g>
    </g>
</svg>