<svg width="20" height="20" xmlns="http://www.w3.org/2000/svg"><g transform="translate(1 1)" fill="none" fill-rule="evenodd"><circle stroke="#6DCBFE" stroke-width="1.35" cx="9" cy="9" r="9"/><path d="M8.3312 5.2004V12.5729c0 .34-.005.6798 0 1.0198v.0153c0 .357.3144.7004.6833.6833.3707-.017.6833-.3006.6833-.6833v-.8387-2.0054-2.4324-2.096c0-.34.0051-.6798 0-1.0198v-.0153c0-.357-.3143-.7004-.6833-.6833-.3707.017-.6833.3006-.6833.6833z" fill="#6DCBFE" fill-rule="nonzero"/><path d="M9.498 14.0898l.9873-.9874 1.575-1.575.362-.362c.2529-.2529.2717-.7175 0-.9669-.2733-.2511-.6969-.2699-.9668 0a9190714.2926 9190714.2926 0 0 1-2.5623 2.5623l-.3621.3621c-.2528.2528-.2716.7175 0 .9669.2733.2493.697.2698.9668 0z" fill="#6DCBFE" fill-rule="nonzero"/><path d="M9.498 13.123l-.9874-.9874-1.575-1.575-.362-.362c-.2529-.253-.7175-.2717-.967 0-.251.2732-.2698.6968 0 .9667l.9874.9874 1.575 1.575.3621.362c.2528.2529.7174.2717.9668 0 .2494-.2733.27-.6969 0-.9668z" fill="#6DCBFE" fill-rule="nonzero"/></g></svg>
