<svg width="25" height="37" xmlns="http://www.w3.org/2000/svg"><g fill="none" fill-rule="evenodd"><path d="M12.5 18.5c0-3.4058 2.7982-6.1667 6.25-6.1667S25 15.0943 25 18.5c0 3.4058-2.7982 6.1667-6.25 6.1667S12.5 21.9057 12.5 18.5z" fill="#1ABCFE"/><path d="M0 30.8333c0-3.4057 2.7982-6.1666 6.25-6.1666h6.25v6.1666C12.5 34.2391 9.7018 37 6.25 37S0 34.239 0 30.8333z" fill="#0ACF83"/><path d="M12.5 0v12.3333h6.25c3.4518 0 6.25-2.7609 6.25-6.1666C25 2.7609 22.2018 0 18.75 0H12.5z" fill="#FF7262"/><path d="M0 6.1667c0 3.4057 2.7982 6.1666 6.25 6.1666h6.25V0H6.25C2.7982 0 0 2.761 0 6.1667z" fill="#F24E1E"/><path d="M0 18.5c0 3.4058 2.7982 6.1667 6.25 6.1667h6.25V12.3333H6.25C2.7982 12.3333 0 15.0943 0 18.5z" fill="#A259FF"/></g></svg>
