<svg width="39" height="36" xmlns="http://www.w3.org/2000/svg"><g fill="none" fill-rule="evenodd"><path fill="#FDB300" d="M8.492 1.1847L19.4606 0l10.9687 1.1847 8.492 11.646L19.4607 35.982 0 12.8307z"/><path fill="#EA6C00" d="M7.8826 12.8307L19.4607 35.982 0 12.8307zM31.0388 12.8307L19.4607 35.982l19.4607-23.1514z"/><path fill="#FDAD00" d="M7.8826 12.8307h23.1563L19.4607 35.982z"/><g><path fill="#FDD231" d="M19.4607 0L8.4919 1.1847l-.6093 11.646z"/><path fill="#FDD231" d="M19.4606 0l10.9688 1.1847.6094 11.646z"/><path fill="#FDAD00" d="M38.9214 12.8307l-8.492-11.646.6095 11.646zM0 12.8307l8.4919-11.646-.6093 11.646z"/><path fill="#FEEEB7" d="M19.4607 0L7.8826 12.8307h23.1563z"/></g></g></svg>
