<?xml version="1.0" encoding="UTF-8"?>
<svg width="25px" height="24px" viewBox="0 0 25 24" version="1.1" xmlns="http://www.w3.org/2000/svg" xmlns:xlink="http://www.w3.org/1999/xlink">
    <!-- Generator: Sketch 51.3 (57544) - http://www.bohemiancoding.com/sketch -->
    <title>Group 3</title>
    <desc>Created with Sketch.</desc>
    <defs></defs>
    <g id="Website" stroke="none" stroke-width="1" fill="none" fill-rule="evenodd">
        <g id="lorikeet-landing" transform="translate(-455.000000, -3672.000000)">
            <g id="Group-15" transform="translate(221.000000, 3217.000000)">
                <g id="Group-10" transform="translate(198.000000, 447.000000)">
                    <g id="button">
                        <g id="Group-3" transform="translate(36.000000, 8.000000)">
                            <polygon id="Clip-2" points="0 0 25 0 25 24 0 24"></polygon>
                            <path d="M12.4992327,0 C5.59699202,0 0,5.50925955 0,12.3048187 C0,17.7400574 3.58118478,22.3520041 8.54895641,23.9789502 C9.17434009,24.091492 9.40224064,23.7123244 9.40224064,23.3860288 C9.40224064,23.0937223 9.39149785,22.3202809 9.38535912,21.293054 C5.90853284,22.0370382 5.17495396,19.6442038 5.17495396,19.6442038 C4.60635359,18.222703 3.78683241,17.8442908 3.78683241,17.8442908 C2.6519337,17.0806684 3.87277471,17.09653 3.87277471,17.09653 C5.12737876,17.1833911 5.78729282,18.3639467 5.78729282,18.3639467 C6.90224064,20.2446783 8.71240025,19.7016076 9.4252609,19.3866417 C9.5388275,18.5912962 9.86111111,18.0489808 10.2186924,17.7415681 C7.4432167,17.4311341 4.52501535,16.3759605 4.52501535,11.6605359 C4.52501535,10.3175878 5.01227747,9.2193614 5.81184776,8.35905887 C5.68293432,8.04786955 5.25399018,6.79706974 5.93385513,5.10365599 C5.93385513,5.10365599 6.98357888,4.77207319 9.37154696,6.36427488 C10.3683241,6.09160656 11.4379988,5.95489474 12.5007673,5.95036286 C13.5620012,5.95489474 14.6316759,6.09160656 15.6299877,6.36427488 C18.0164211,4.77207319 19.0638428,5.10365599 19.0638428,5.10365599 C19.7460098,6.79706974 19.3170657,8.04786955 19.1881522,8.35905887 C19.9892572,9.2193614 20.47345,10.3175878 20.47345,11.6605359 C20.47345,16.3872903 17.5506446,17.4273575 14.7659607,17.7325043 C15.2148557,18.1116719 15.6146409,18.8632092 15.6146409,20.010531 C15.6146409,21.6556047 15.599294,22.9826912 15.599294,23.3860288 C15.599294,23.7145903 15.8241252,24.0975345 16.458717,23.9774396 C21.4211172,22.3474722 25,17.7385468 25,12.3048187 C25,5.50925955 19.403008,0 12.4992327,0" id="Fill-1" fill="#FEFEFE"></path>
                        </g>
                    </g>
                </g>
            </g>
        </g>
    </g>
</svg>